<svg xmlns="http://www.w3.org/2000/svg" fill="none" viewBox="-0.5 -0.5 24 24" id="Bem--Streamline-Svg-Logos.svg" height="24" width="24"><desc>Bem Streamline Icon: https://streamlinehq.com</desc><path fill="#FFFFFF" d="M0.23958333333333334 5.084485416666667h5.265179166666667v1.5485708333333332H0.23958333333333334v-1.5485708333333332ZM0.23958333333333334 2.208541458333334h5.265179166666667v1.5485804166666668H0.23958333333333334V2.208541458333334ZM9.685946875 7.93830625H0.23958333333333334v1.5485708333333332h9.092403124999999c0.9955166666666666 0 3.318396875 0.0221375 4.181160416666667 1.4158656250000001v-0.8627875c-0.420325 -1.3716145833333333 -1.6591864583333333 -2.1016489583333335 -3.8272 -2.1016489583333335Zm0.022113541666666667 2.875934375H0.23958333333333334v1.5485947916666667h9.092403124999999c2.2122645833333334 0 3.6059927083333334 0.088478125 4.181160416666667 0.39818749999999997V12.075239583333335c-0.4424385416666667 -1.08401875 -2.3007427083333334 -1.2609989583333334 -3.8050864583333333 -1.2609989583333334Zm-0.022113541666666667 7.300463541666667H0.23958333333333334v-1.5485708333333332h9.092403124999999c0.9955166666666666 0 3.318396875 -0.0221375 4.181160416666667 -1.4158656250000001v0.8627875c-0.420325 1.3716145833333333 -1.6591864583333333 2.1016489583333335 -3.8272 2.1016489583333335Zm0.022113541666666667 -2.875934375H0.23958333333333334v-1.5485947916666667h9.092403124999999c2.2122645833333334 0 3.6059927083333334 -0.088478125 4.181160416666667 -0.39818749999999997v0.6857833333333334c-0.4424385416666667 1.08401875 -2.3007427083333334 1.2609989583333334 -3.8050864583333333 1.2609989583333334Zm6.105853125 5.5527750000000005H22.760416666666668v-0.951265625H16.013007291666668c-0.5973052083333333 0 -2.013146875 -0.0221375 -2.5219739583333336 -0.8406739583333334v0.530940625c0.2433447916666667 0.8185364583333334 0.9955166666666666 1.2609989583333334 2.3228802083333333 1.2609989583333334Zm-0.022113541666666667 -1.7476885416666668h6.9465031250000004v-0.951265625H16.013007291666668c-1.3494770833333334 0 -2.1901270833333335 -0.04425104166666667 -2.5219739583333336 -0.2433447916666667v0.420325c0.2654822916666667 0.6636697916666666 1.3937281250000002 0.7742854166666666 2.3007666666666666 0.7742854166666666Z" stroke-width="1"></path></svg>